<svg xmlns="http://www.w3.org/2000/svg" version="1.1"><polyline points="142.5,15.5,142.0,35.5,139.5,50.5,117.5,67.5,120.0,80.0,118.0,102.5,133.0,120.0,148.0,152.5,155.5,173.0,140.5,193.0,110.5,223.0,136.0,212.5,155.5,200.0,175.5,190.0,195.0,187.5,214.5,177.5" stroke="black" stroke-width="2" fill="none" />
<polyline points="212.0,180.0,220.0,179.0,228.5,178.5,236.0,178.0" stroke="black" stroke-width="2" fill="none" />
<polyline points="235.5,173.0,227.0,180.5,219.0,188.0,211.0,195.0" stroke="black" stroke-width="2" fill="none" />
<polyline points="203.0,193.0,211.5,185.5" stroke="black" stroke-width="2" fill="none" />
<polyline points="220.5,186.5,228.5,186.0" stroke="black" stroke-width="2" fill="none" />
<polyline points="235.0,189.0,234.5,181.0,254.5,178.5,274.0,181.5" stroke="black" stroke-width="2" fill="none" />
<polyline points="276.5,191.5,268.5,192.5" stroke="black" stroke-width="2" fill="none" />
<polyline points="277.0,196.5,257.0,197.0" stroke="black" stroke-width="2" fill="none" />
<polyline points="253.0,188.5,245.0,189.0" stroke="black" stroke-width="2" fill="none" />
<polyline points="234.0,176.0,226.0,176.5" stroke="black" stroke-width="2" fill="none" />
<polyline points="228.5,172.5,237.0,165.0" stroke="black" stroke-width="2" fill="none" />
<polyline points="243.5,164.0,235.0,164.0,226.5,164.0" stroke="black" stroke-width="2" fill="none" />
<polyline points="226.5,156.5,234.5,156.0,242.5,156.0" stroke="black" stroke-width="2" fill="none" />
<polyline points="234.0,154.0,242.5,146.0" stroke="black" stroke-width="2" fill="none" />
<polyline points="242.5,140.0,234.5,147.0" stroke="black" stroke-width="2" fill="none" />
<polyline points="227.0,149.0,235.0,148.5,243.5,148.0" stroke="black" stroke-width="2" fill="none" />
<polyline points="228.5,140.0,236.5,132.5" stroke="black" stroke-width="2" fill="none" />
<polyline points="228.0,131.0,236.0,123.0" stroke="black" stroke-width="2" fill="none" />
<polyline points="236.0,116.5,228.0,124.0" stroke="black" stroke-width="2" fill="none" />
<polyline points="228.5,126.5,236.0,126.0" stroke="black" stroke-width="2" fill="none" />
<polyline points="235.5,129.5,227.5,130.0" stroke="black" stroke-width="2" fill="none" />
<polyline points="227.5,133.0,235.5,133.0,243.5,133.0" stroke="black" stroke-width="2" fill="none" />
<polyline points="242.0,141.0,234.0,141.5,226.0,142.5" stroke="black" stroke-width="2" fill="none" />
<polyline points="211.5,150.5,203.5,151.0" stroke="black" stroke-width="2" fill="none" />
<polyline points="193.5,149.5,186.0,149.5" stroke="black" stroke-width="2" fill="none" />
<polyline points="181.5,157.5,189.0,157.0,196.5,156.0,204.0,155.0" stroke="black" stroke-width="2" fill="none" />
<polyline points="221.0,175.0,228.5,174.0,236.5,173.5" stroke="black" stroke-width="2" fill="none" />
<polyline points="219.0,187.5,211.5,187.5,203.5,188.0,195.5,188.0,187.5,188.5,179.5,189.0" stroke="black" stroke-width="2" fill="none" />
<polyline points="179.5,187.5,152.0,207.5,144.5,227.5,149.5,247.5,171.5,267.5" stroke="black" stroke-width="2" fill="none" />
<polyline points="172.0,268.5,179.5,267.5,187.0,267.0,195.0,267.0,202.5,267.0" stroke="black" stroke-width="2" fill="none" />
<polyline points="203.5,265.0,212.0,264.5" stroke="black" stroke-width="2" fill="none" />
<polyline points="211.0,265.5,219.0,258.0" stroke="black" stroke-width="2" fill="none" />
<polyline points="220.0,257.5,212.0,258.0" stroke="black" stroke-width="2" fill="none" />
<polyline points="204.5,253.0,212.5,252.5,220.0,252.0,228.0,251.0" stroke="black" stroke-width="2" fill="none" />
<polyline points="228.5,243.5,221.0,251.0,213.0,258.5,205.0,266.0" stroke="black" stroke-width="2" fill="none" />
<polyline points="202.5,261.5,195.0,268.5" stroke="black" stroke-width="2" fill="none" />
<polyline points="188.0,261.5,180.0,268.5" stroke="black" stroke-width="2" fill="none" />
<polyline points="172.5,267.0,180.5,259.5" stroke="black" stroke-width="2" fill="none" />
<polyline points="172.0,258.5,164.0,266.0" stroke="black" stroke-width="2" fill="none" />
<polyline points="165.0,262.0,173.0,261.5,180.5,261.0,188.0,260.5,195.0,259.5,203.0,259.0,210.5,259.0,218.0,258.0" stroke="black" stroke-width="2" fill="none" />
<polyline points="226.0,260.0,245.5,257.5,265.5,257.5,285.0,257.5" stroke="black" stroke-width="2" fill="none" />
<polyline points="284.0,260.0,292.0,259.5" stroke="black" stroke-width="2" fill="none" />
<polyline points="298.5,258.0,306.5,250.5" stroke="black" stroke-width="2" fill="none" />
<polyline points="306.0,244.0,298.0,251.5" stroke="black" stroke-width="2" fill="none" />
<polyline points="298.5,249.5,306.5,249.5" stroke="black" stroke-width="2" fill="none" />
<polyline points="307.5,258.0,315.5,250.5" stroke="black" stroke-width="2" fill="none" />
<polyline points="316.5,257.0,308.5,265.0" stroke="black" stroke-width="2" fill="none" />
<polyline points="309.0,260.5,316.5,260.5,325.0,260.0,333.0,259.5,340.5,259.0,348.0,258.5,356.5,258.5,364.5,257.5" stroke="black" stroke-width="2" fill="none" />
<polyline points="357.0,256.5,365.0,255.5,372.5,254.5" stroke="black" stroke-width="2" fill="none" />
<polyline points="373.5,241.5,365.5,249.5,357.0,257.5,348.5,265.5" stroke="black" stroke-width="2" fill="none" />
<polyline points="346.5,265.0,354.5,264.5" stroke="black" stroke-width="2" fill="none" />
<polyline points="345.5,260.0,337.5,267.5" stroke="black" stroke-width="2" fill="none" />
<polyline points="331.0,261.0,323.0,269.0" stroke="black" stroke-width="2" fill="none" />
<polyline points="323.0,268.5,331.5,268.0,339.0,268.0,347.0,267.5" stroke="black" stroke-width="2" fill="none" />
<polyline points="325.5,259.0,318.0,266.5" stroke="black" stroke-width="2" fill="none" />
<polyline points="315.5,266.5,323.5,266.0" stroke="black" stroke-width="2" fill="none" />
<polyline points="315.5,285.5,307.5,286.5" stroke="black" stroke-width="2" fill="none" />
<polyline points="307.0,294.5,298.5,295.0" stroke="black" stroke-width="2" fill="none" />
<polyline points="300.5,299.0,292.5,299.5" stroke="black" stroke-width="2" fill="none" />
<polyline points="298.5,308.5,291.0,309.5,283.0,310.0" stroke="black" stroke-width="2" fill="none" />
<polyline points="306.0,307.0,314.0,307.0" stroke="black" stroke-width="2" fill="none" />
<polyline points="323.0,312.0,343.0,311.5" stroke="black" stroke-width="2" fill="none" />
<polyline points="345.0,309.5,353.0,309.0" stroke="black" stroke-width="2" fill="none" />
<polyline points="333.0,290.5,353.0,290.5,375.5,290.5" stroke="black" stroke-width="2" fill="none" />
<polyline points="371.5,243.0,363.0,243.5" stroke="black" stroke-width="2" fill="none" />
<polyline points="363.5,235.5,371.0,236.0,379.0,236.0" stroke="black" stroke-width="2" fill="none" />
<polyline points="381.0,229.0,373.5,229.5,365.5,229.5" stroke="black" stroke-width="2" fill="none" />
<polyline points="363.5,220.5,371.5,220.5,379.5,220.5" stroke="black" stroke-width="2" fill="none" />
<polyline points="371.5,211.0,363.5,218.5" stroke="black" stroke-width="2" fill="none" />
<polyline points="363.5,212.5,371.5,212.0" stroke="black" stroke-width="2" fill="none" />
<polyline points="364.5,206.0,356.5,213.5" stroke="black" stroke-width="2" fill="none" />
<polyline points="356.0,207.0,364.0,206.0,372.5,205.5" stroke="black" stroke-width="2" fill="none" />
<polyline points="378.5,197.5,387.0,197.5,395.0,197.0,403.5,196.5,412.0,196.0" stroke="black" stroke-width="2" fill="none" />
<polyline points="410.5,195.5,419.0,188.5,426.5,180.5" stroke="black" stroke-width="2" fill="none" />
<polyline points="427.0,172.0,419.0,179.5,410.5,187.0,402.0,194.5,394.0,201.5" stroke="black" stroke-width="2" fill="none" />
<polyline points="393.5,193.5,401.5,186.5,409.5,179.0,418.0,171.5,426.0,164.0" stroke="black" stroke-width="2" fill="none" />
<polyline points="417.5,162.0,425.0,154.0" stroke="black" stroke-width="2" fill="none" />
<polyline points="421.5,150.0,413.0,157.0,404.5,164.0" stroke="black" stroke-width="2" fill="none" />
<polyline points="411.5,163.5,419.5,156.0" stroke="black" stroke-width="2" fill="none" />
<polyline points="420.0,152.0,412.0,153.0" stroke="black" stroke-width="2" fill="none" />
<polyline points="411.0,149.0,403.0,156.0,394.5,163.5" stroke="black" stroke-width="2" fill="none" />
<polyline points="388.5,163.0,396.5,155.0,404.0,147.5,412.0,140.5" stroke="black" stroke-width="2" fill="none" />
<polyline points="404.5,138.5,396.5,146.0,388.5,154.0,380.0,161.5,371.5,169.5" stroke="black" stroke-width="2" fill="none" />
<polyline points="371.5,165.5,380.0,165.0,388.0,164.0,396.0,163.5,403.5,162.5,411.5,162.5,419.0,161.5,427.0,160.5,435.0,160.0" stroke="black" stroke-width="2" fill="none" />
<polyline points="425.0,153.5,417.5,154.0,410.0,154.0,402.0,154.0,394.5,154.5,386.5,155.0,379.0,155.5,371.5,156.5" stroke="black" stroke-width="2" fill="none" />
<polyline points="373.0,162.5,381.0,155.0,389.5,147.5,397.5,140.0" stroke="black" stroke-width="2" fill="none" />
<polyline points="389.5,140.0,381.5,147.5,374.0,155.0" stroke="black" stroke-width="2" fill="none" />
<polyline points="378.0,153.5,386.0,153.0" stroke="black" stroke-width="2" fill="none" />
<polyline points="388.5,146.5,396.5,145.5,404.5,144.5" stroke="black" stroke-width="2" fill="none" />
<polyline points="405.0,133.0,397.5,133.0,390.0,134.0" stroke="black" stroke-width="2" fill="none" />
<polyline points="389.0,133.0,366.5,153.0,362.0,172.5,364.5,177.5,385.0,197.5,392.5,225.5,397.5,223.0,417.5,225.5,437.5,225.5" stroke="black" stroke-width="2" fill="none" />
<polyline points="434.5,223.0,442.5,223.0,450.5,223.0" stroke="black" stroke-width="2" fill="none" />
<polyline points="451.0,197.5,471.0,197.5,491.5,190.0" stroke="black" stroke-width="2" fill="none" />
<polyline points="492.0,196.0,484.0,196.5" stroke="black" stroke-width="2" fill="none" />
<polyline points="468.0,196.0,459.5,196.0" stroke="black" stroke-width="2" fill="none" />
<polyline points="454.0,189.5,474.5,187.0" stroke="black" stroke-width="2" fill="none" />
<polyline points="472.0,154.5,452.0,154.5" stroke="black" stroke-width="2" fill="none" />
<polyline points="426.5,146.0,419.0,146.5,411.5,147.0,403.5,147.5,396.0,148.0,388.0,148.0,380.0,148.5,372.0,149.0" stroke="black" stroke-width="2" fill="none" />
<polyline points="371.5,141.0,379.5,140.5,387.5,140.0,395.5,140.0,403.0,140.5,410.5,140.5,418.5,139.5" stroke="black" stroke-width="2" fill="none" />
<polyline points="420.0,122.5,440.0,122.5,460.0,123.0,480.0,123.0" stroke="black" stroke-width="2" fill="none" />
<polyline points="484.0,123.0,476.0,123.5,468.0,124.0" stroke="black" stroke-width="2" fill="none" />
<polyline points="474.5,130.0,454.5,130.0,434.5,127.5" stroke="black" stroke-width="2" fill="none" />
<polyline points="444.0,87.0,424.0,87.0,404.5,87.0" stroke="black" stroke-width="2" fill="none" />
<polyline points="410.5,84.5,418.5,84.5,426.5,84.5" stroke="black" stroke-width="2" fill="none" />
<polyline points="436.5,85.0,444.5,84.0" stroke="black" stroke-width="2" fill="none" />
<polyline points="419.0,46.0,410.5,46.5" stroke="black" stroke-width="2" fill="none" />
<polyline points="404.5,44.5,396.0,44.5,388.0,45.0" stroke="black" stroke-width="2" fill="none" />
<polyline points="378.5,44.0,370.5,44.5" stroke="black" stroke-width="2" fill="none" />
<polyline points="371.5,59.5,363.5,67.5,355.5,75.5,347.5,83.5" stroke="black" stroke-width="2" fill="none" />
<polyline points="354.5,83.0,362.5,76.5,370.5,69.5" stroke="black" stroke-width="2" fill="none" />
<polyline points="370.5,76.0,362.0,83.5" stroke="black" stroke-width="2" fill="none" />
<polyline points="363.0,75.5,371.0,74.0" stroke="black" stroke-width="2" fill="none" />
<polyline points="380.5,76.5,372.5,84.0" stroke="black" stroke-width="2" fill="none" />
<polyline points="378.0,85.5,370.0,93.0,362.0,100.0,354.5,107.5,347.5,114.5" stroke="black" stroke-width="2" fill="none" />
<polyline points="355.0,115.0,363.5,107.5,372.0,99.5,380.5,92.0" stroke="black" stroke-width="2" fill="none" />
<polyline points="395.0,86.0,403.0,85.5" stroke="black" stroke-width="2" fill="none" />
<polyline points="380.0,89.0,372.0,89.5,364.0,90.0,356.0,90.5,347.5,90.5,339.0,91.0,330.5,91.5,322.5,92.5,314.0,93.0" stroke="black" stroke-width="2" fill="none" />
<polyline points="314.5,89.0,323.0,80.5,331.5,73.0,340.0,65.5,348.0,58.0" stroke="black" stroke-width="2" fill="none" />
<polyline points="354.0,59.5,346.0,67.0,338.0,74.0,330.0,82.0" stroke="black" stroke-width="2" fill="none" />
<polyline points="333.0,74.5,325.0,74.5" stroke="black" stroke-width="2" fill="none" />
<polyline points="329.0,67.0,337.5,66.0,346.5,66.0,355.0,65.0,363.5,64.0" stroke="black" stroke-width="2" fill="none" />
<polyline points="365.0,60.5,357.0,68.0,349.0,75.5,341.0,82.0" stroke="black" stroke-width="2" fill="none" />
<polyline points="341.5,91.0,333.5,98.5,325.0,105.5" stroke="black" stroke-width="2" fill="none" />
<polyline points="325.5,107.5,333.0,107.5,340.0,106.5,347.5,105.5" stroke="black" stroke-width="2" fill="none" />
<polyline points="347.0,108.0,354.5,100.5,362.0,93.0" stroke="black" stroke-width="2" fill="none" />
<polyline points="362.5,98.0,370.5,97.5" stroke="black" stroke-width="2" fill="none" />
<polyline points="371.5,106.5,364.0,107.0" stroke="black" stroke-width="2" fill="none" />
<polyline points="364.5,117.0,356.5,118.0" stroke="black" stroke-width="2" fill="none" />
<polyline points="356.0,113.5,364.0,113.0" stroke="black" stroke-width="2" fill="none" />
<polyline points="356.5,91.5,348.0,99.0,340.5,106.0" stroke="black" stroke-width="2" fill="none" />
<polyline points="331.0,107.0,338.5,99.0,346.5,91.5" stroke="black" stroke-width="2" fill="none" />
<polyline points="333.5,92.5,325.5,100.0" stroke="black" stroke-width="2" fill="none" />
<polyline points="325.0,100.0,333.0,99.0" stroke="black" stroke-width="2" fill="none" />
<polyline points="324.0,90.5,316.0,98.5" stroke="black" stroke-width="2" fill="none" />
<polyline points="314.5,100.5,322.5,100.0,330.5,99.5,338.5,99.5,346.5,99.5,354.5,99.0,362.5,98.5,371.5,97.5,379.5,97.0" stroke="black" stroke-width="2" fill="none" />
<polyline points="379.5,81.0,371.0,81.5,362.5,81.5,354.5,81.5,347.0,82.5,339.5,82.5,332.0,83.0,324.0,84.0,316.0,84.0" stroke="black" stroke-width="2" fill="none" />
<polyline points="316.0,83.5,324.5,76.0,332.5,68.5,340.5,60.5" stroke="black" stroke-width="2" fill="none" />
<polyline points="331.5,52.0,311.5,72.0,312.0,92.5,310.0,105.0,330.0,107.5,350.0,112.5,370.0,103.0,402.5,80.5,422.5,80.5,443.0,81.0" stroke="black" stroke-width="2" fill="none" />
<polyline points="397.0,108.0,399.5,135.5,424.5,155.0,424.0,175.0,406.5,195.0,409.5,217.5,429.0,217.5" stroke="black" stroke-width="2" fill="none" />
<polyline points="427.5,203.0,420.0,203.0" stroke="black" stroke-width="2" fill="none" />
<polyline points="421.0,183.5,413.5,184.0" stroke="black" stroke-width="2" fill="none" />
<polyline points="413.0,172.0,404.5,179.5,396.0,186.5,387.5,194.0" stroke="black" stroke-width="2" fill="none" />
<polyline points="380.5,194.0,389.0,186.5,397.0,179.0,404.5,171.5" stroke="black" stroke-width="2" fill="none" />
<polyline points="396.5,171.0,389.0,178.5,381.0,186.0" stroke="black" stroke-width="2" fill="none" />
<polyline points="378.0,193.0,386.0,193.0,393.5,192.5,401.5,192.0,409.5,190.5" stroke="black" stroke-width="2" fill="none" />
<polyline points="388.0,174.0,380.0,181.5,372.5,188.5" stroke="black" stroke-width="2" fill="none" />
<polyline points="372.5,189.0,381.0,188.0,388.5,187.5,396.0,187.0,403.5,187.0,411.0,186.5,418.5,185.5,426.5,185.0" stroke="black" stroke-width="2" fill="none" />
<polyline points="380.5,172.5,373.0,180.0" stroke="black" stroke-width="2" fill="none" />
<polyline points="371.5,177.5,379.5,177.0" stroke="black" stroke-width="2" fill="none" />
<polyline points="379.0,184.5,371.0,185.5" stroke="black" stroke-width="2" fill="none" />
<polyline points="364.0,182.0,371.5,181.5,379.5,181.0,387.0,180.5,395.0,180.0,402.5,180.0,411.0,180.0,419.0,179.5,427.5,179.5" stroke="black" stroke-width="2" fill="none" />
<polyline points="427.0,171.5,419.5,172.0,412.0,172.0,404.0,172.0,396.0,172.5,387.5,173.5,379.5,174.0,371.5,174.5,363.5,175.0" stroke="black" stroke-width="2" fill="none" />
<polyline points="365.5,178.0,385.5,198.0,405.0,197.5,425.0,172.5,455.0,180.0,475.0,180.0,478.0,193.0,500.0,198.0" stroke="black" stroke-width="2" fill="none" />
<polyline points="399.5,167.5,379.5,167.5" stroke="black" stroke-width="2" fill="none" />
<polyline points="375.0,162.5,395.5,162.5,415.5,162.5" stroke="black" stroke-width="2" fill="none" />
<polyline points="357.0,194.0,349.0,201.5" stroke="black" stroke-width="2" fill="none" />
<polyline points="347.0,197.5,339.5,204.5" stroke="black" stroke-width="2" fill="none" />
<polyline points="338.0,200.0,360.0,220.0,360.0,240.0,330.0,260.0" stroke="black" stroke-width="2" fill="none" />
<polyline points="314.0,253.5,306.5,253.5,298.5,254.0" stroke="black" stroke-width="2" fill="none" />
<polyline points="298.5,245.5,306.5,244.5" stroke="black" stroke-width="2" fill="none" />
<polyline points="298.0,235.0,290.0,242.5" stroke="black" stroke-width="2" fill="none" />
<polyline points="291.5,236.5,300.0,235.5,308.0,235.5" stroke="black" stroke-width="2" fill="none" />
<polyline points="300.0,226.0,291.5,233.0" stroke="black" stroke-width="2" fill="none" />
<polyline points="291.0,227.0,283.0,234.5" stroke="black" stroke-width="2" fill="none" />
<polyline points="284.0,227.0,292.0,227.5,300.0,227.5" stroke="black" stroke-width="2" fill="none" />
<polyline points="283.5,218.0,275.5,225.5" stroke="black" stroke-width="2" fill="none" />
<polyline points="275.5,221.5,267.5,228.5" stroke="black" stroke-width="2" fill="none" />
<polyline points="269.0,228.5,277.0,227.5,284.5,226.5" stroke="black" stroke-width="2" fill="none" />
<polyline points="289.5,216.5,282.5,217.0,274.5,217.0,266.5,217.5,258.5,218.5,251.0,219.0,242.5,219.5,234.5,219.5" stroke="black" stroke-width="2" fill="none" />
<polyline points="241.5,219.5,234.0,227.5,226.5,234.5,219.0,242.0" stroke="black" stroke-width="2" fill="none" />
<polyline points="221.0,238.0,229.0,237.5,236.5,237.5" stroke="black" stroke-width="2" fill="none" />
<polyline points="236.0,234.0,244.0,227.0,252.0,219.5" stroke="black" stroke-width="2" fill="none" />
<polyline points="253.5,223.5,245.5,224.0" stroke="black" stroke-width="2" fill="none" />
<polyline points="242.0,225.0,222.0,245.0,219.0,265.0,219.0,284.5,234.0,294.5,264.0,324.0,287.0,331.5" stroke="black" stroke-width="2" fill="none" />
<polyline points="284.5,335.0,276.5,335.5" stroke="black" stroke-width="2" fill="none" />
<polyline points="269.0,319.0,261.5,319.5" stroke="black" stroke-width="2" fill="none" />
<polyline points="260.0,311.0,252.0,312.0" stroke="black" stroke-width="2" fill="none" />
<polyline points="245.0,332.0,236.5,332.0" stroke="black" stroke-width="2" fill="none" />
<polyline points="229.0,331.0,249.5,331.0" stroke="black" stroke-width="2" fill="none" />
<polyline points="234.5,309.0,226.5,309.5" stroke="black" stroke-width="2" fill="none" />
<polyline points="225.5,293.5,233.5,293.5" stroke="black" stroke-width="2" fill="none" />
<polyline points="227.5,277.5,219.5,278.0" stroke="black" stroke-width="2" fill="none" />
<polyline points="225.5,284.0,217.0,284.0,208.5,284.0" stroke="black" stroke-width="2" fill="none" />
<polyline points="211.5,269.0,219.5,268.5" stroke="black" stroke-width="2" fill="none" />
<polyline points="228.5,262.0,248.5,262.0,248.0,267.0,268.0,267.0,268.0,262.0,287.5,262.0" stroke="black" stroke-width="2" fill="none" />
<polyline points="275.5,266.5,267.5,267.0,260.0,268.0,252.0,268.5,244.0,269.0" stroke="black" stroke-width="2" fill="none" />
<polyline points="243.0,272.0,263.0,272.0" stroke="black" stroke-width="2" fill="none" />
<polyline points="259.5,227.5,267.5,219.5" stroke="black" stroke-width="2" fill="none" />
<polyline points="266.5,224.0,294.0,244.0,296.5,264.0,289.0,284.0" stroke="black" stroke-width="2" fill="none" />
<polyline points="253.5,228.0,261.5,220.0" stroke="black" stroke-width="2" fill="none" />
<polyline points="261.0,215.0,269.0,214.0" stroke="black" stroke-width="2" fill="none" />
<polyline points="268.0,208.0,276.5,207.5,284.0,206.0,292.0,205.5" stroke="black" stroke-width="2" fill="none" />
<polyline points="299.5,187.5,307.5,187.0,316.5,187.0,325.0,187.0,333.5,187.0,342.0,187.0,349.5,187.0" stroke="black" stroke-width="2" fill="none" />
<polyline points="341.0,188.5,368.0,208.5,372.5,228.5,364.5,249.0" stroke="black" stroke-width="2" fill="none" />
<polyline points="334.0,201.5,342.0,194.0" stroke="black" stroke-width="2" fill="none" />
<polyline points="332.0,197.5,324.0,205.0" stroke="black" stroke-width="2" fill="none" />
<polyline points="316.5,196.0,324.5,188.5" stroke="black" stroke-width="2" fill="none" />
<polyline points="316.0,185.0,308.0,192.5" stroke="black" stroke-width="2" fill="none" />
<polyline points="308.0,192.5,315.5,192.0" stroke="black" stroke-width="2" fill="none" />
<polyline points="314.5,198.0,322.0,197.5,329.5,196.5,337.5,196.5,346.0,196.5,354.0,196.0,362.5,195.0" stroke="black" stroke-width="2" fill="none" />
<polyline points="305.5,178.0,297.5,186.0" stroke="black" stroke-width="2" fill="none" />
<polyline points="293.0,185.5,301.0,178.0" stroke="black" stroke-width="2" fill="none" />
<polyline points="301.0,171.5,293.0,179.0" stroke="black" stroke-width="2" fill="none" />
<polyline points="291.0,181.5,299.0,181.0,307.0,180.0" stroke="black" stroke-width="2" fill="none" />
<polyline points="299.5,171.0,291.0,171.0,283.0,171.5" stroke="black" stroke-width="2" fill="none" />
<polyline points="281.5,169.5,289.5,162.0" stroke="black" stroke-width="2" fill="none" />
<polyline points="290.5,161.5,282.0,162.0" stroke="black" stroke-width="2" fill="none" />
<polyline points="282.0,163.0,290.5,155.0" stroke="black" stroke-width="2" fill="none" />
<polyline points="291.0,157.5,283.0,158.0" stroke="black" stroke-width="2" fill="none" />
<polyline points="279.0,159.5,299.0,187.5,319.5,197.5,340.0,200.5,360.0,215.5" stroke="black" stroke-width="2" fill="none" />
<polyline points="348.0,149.0,339.5,149.0,331.5,149.5,323.0,149.5" stroke="black" stroke-width="2" fill="none" />
<polyline points="317.0,144.5,337.0,144.5" stroke="black" stroke-width="2" fill="none" />
<polyline points="335.5,156.5,315.5,156.5" stroke="black" stroke-width="2" fill="none" />
<polyline points="307.0,146.5,327.5,149.0" stroke="black" stroke-width="2" fill="none" />
<polyline points="343.5,140.0,323.5,140.5,303.5,140.5" stroke="black" stroke-width="2" fill="none" />
<polyline points="291.5,138.0,283.5,145.5" stroke="black" stroke-width="2" fill="none" />
<polyline points="283.5,148.0,291.5,147.5" stroke="black" stroke-width="2" fill="none" />
<polyline points="290.5,145.5,282.5,153.0" stroke="black" stroke-width="2" fill="none" />
<polyline points="283.0,151.0,291.5,150.5" stroke="black" stroke-width="2" fill="none" />
<polyline points="289.0,158.0,309.0,183.0,329.5,188.0,350.0,193.0,370.0,213.0,390.0,213.0" stroke="black" stroke-width="2" fill="none" />
<polyline points="371.5,104.5,363.5,105.0,356.0,105.0,348.5,105.0,341.5,105.0,333.5,105.5,325.5,106.0,317.5,106.5,309.5,107.5,301.0,108.0,293.0,109.0" stroke="black" stroke-width="2" fill="none" />
<polyline points="291.0,106.5,299.0,99.5" stroke="black" stroke-width="2" fill="none" />
<polyline points="299.5,106.5,291.5,114.0" stroke="black" stroke-width="2" fill="none" />
<polyline points="292.0,117.5,300.0,117.0,308.5,116.0" stroke="black" stroke-width="2" fill="none" />
<polyline points="301.5,114.5,293.0,123.0" stroke="black" stroke-width="2" fill="none" />
<polyline points="292.5,121.5,300.5,120.5" stroke="black" stroke-width="2" fill="none" />
<polyline points="300.0,124.5,292.0,132.0,284.5,139.5" stroke="black" stroke-width="2" fill="none" />
<polyline points="283.0,139.0,291.0,138.5" stroke="black" stroke-width="2" fill="none" />
<polyline points="291.5,141.0,284.0,142.0" stroke="black" stroke-width="2" fill="none" />
<polyline points="287.5,140.5,307.5,113.0,350.0,116.0,365.0,136.0" stroke="black" stroke-width="2" fill="none" />
<polyline points="378.5,73.0,370.5,73.0,362.0,73.0,354.5,73.5,346.5,73.5,338.5,74.0,331.0,74.5,323.5,75.0,315.0,75.5" stroke="black" stroke-width="2" fill="none" />
<polyline points="312.5,71.0,332.5,51.0,352.5,51.0,372.5,63.5,397.5,48.5,417.5,48.0" stroke="black" stroke-width="2" fill="none" />
<polyline points="378.5,63.5,370.0,64.5,361.0,65.5,353.0,66.0,345.0,66.5,337.5,66.5,330.0,66.5,322.5,66.5,314.0,67.0" stroke="black" stroke-width="2" fill="none" />
<polyline points="323.5,63.5,331.5,62.5,339.5,61.5,347.5,61.0,355.5,60.5,363.5,60.0,371.5,59.0" stroke="black" stroke-width="2" fill="none" />
<polyline points="347.5,37.0,339.5,37.5" stroke="black" stroke-width="2" fill="none" />
<polyline points="334.5,33.0,354.5,38.0,392.0,45.5,412.0,38.0,412.0,43.0" stroke="black" stroke-width="2" fill="none" />
<polyline points="420.5,32.5,400.5,32.5,380.5,22.5" stroke="black" stroke-width="2" fill="none" />
<polyline points="346.5,13.0,338.5,13.5" stroke="black" stroke-width="2" fill="none" />
<polyline points="342.0,12.5,322.0,12.5" stroke="black" stroke-width="2" fill="none" />
<polyline points="307.0,18.0,327.0,23.0,347.0,23.5,382.0,26.0,384.5,45.5,369.5,48.0,372.0,70.0,377.0,87.5,364.0,107.0,366.5,137.0,386.5,134.5,406.5,137.0,427.0,162.0,457.0,149.5,477.0,149.5,479.5,157.0" stroke="black" stroke-width="2" fill="none" />
<polyline points="363.0,50.5,354.5,51.5,347.0,52.5,339.0,53.0,330.5,53.0" stroke="black" stroke-width="2" fill="none" />
<polyline points="314.5,52.5,307.0,52.5" stroke="black" stroke-width="2" fill="none" />
<polyline points="291.0,74.0,282.5,74.5,275.0,76.0,267.0,76.5,259.0,77.0,251.0,78.0,243.0,78.5,235.5,78.5" stroke="black" stroke-width="2" fill="none" />
<polyline points="243.0,80.5,251.0,80.0" stroke="black" stroke-width="2" fill="none" />
<polyline points="253.0,82.5,260.5,75.0" stroke="black" stroke-width="2" fill="none" />
<polyline points="256.0,77.0,231.0,97.0,231.0,117.5,238.5,137.5,238.0,158.0,228.0,177.5" stroke="black" stroke-width="2" fill="none" />
<polyline points="228.5,198.0,248.5,197.5,268.5,189.5" stroke="black" stroke-width="2" fill="none" />
<polyline points="282.5,165.5,290.5,164.5,299.0,163.5" stroke="black" stroke-width="2" fill="none" />
<polyline points="292.0,134.0,284.5,134.5" stroke="black" stroke-width="2" fill="none" />
<polyline points="284.0,126.5,292.0,126.5,299.5,126.5" stroke="black" stroke-width="2" fill="none" />
<polyline points="299.0,104.5,290.5,105.0" stroke="black" stroke-width="2" fill="none" />
<polyline points="288.5,100.0,296.5,99.5,304.5,99.5" stroke="black" stroke-width="2" fill="none" />
<polyline points="299.5,91.5,291.5,99.0" stroke="black" stroke-width="2" fill="none" />
<polyline points="290.0,97.5,298.0,97.0" stroke="black" stroke-width="2" fill="none" />
<polyline points="298.5,94.5,291.0,95.5,283.0,95.5" stroke="black" stroke-width="2" fill="none" />
<polyline points="283.0,90.5,291.5,83.0" stroke="black" stroke-width="2" fill="none" />
<polyline points="283.0,77.0,275.0,84.0" stroke="black" stroke-width="2" fill="none" />
<polyline points="277.0,83.5,284.5,83.0" stroke="black" stroke-width="2" fill="none" />
<polyline points="278.0,87.0,285.5,86.5,293.5,86.0,301.5,85.5" stroke="black" stroke-width="2" fill="none" />
<polyline points="290.5,90.0,282.5,90.5" stroke="black" stroke-width="2" fill="none" />
<polyline points="274.5,77.5,267.0,85.0" stroke="black" stroke-width="2" fill="none" />
<polyline points="261.5,84.5,269.0,77.0" stroke="black" stroke-width="2" fill="none" />
<polyline points="266.0,69.5,257.5,70.0,250.0,71.0" stroke="black" stroke-width="2" fill="none" />
<polyline points="249.5,74.5,241.0,82.0,234.0,89.5,226.5,97.5,219.0,105.5" stroke="black" stroke-width="2" fill="none" />
<polyline points="221.0,101.0,229.0,100.5,237.5,100.5" stroke="black" stroke-width="2" fill="none" />
<polyline points="235.5,100.0,227.5,107.0,219.5,115.0" stroke="black" stroke-width="2" fill="none" />
<polyline points="219.0,118.5,227.5,118.5,235.5,117.5" stroke="black" stroke-width="2" fill="none" />
<polyline points="237.0,109.5,228.5,110.0,220.5,111.0" stroke="black" stroke-width="2" fill="none" />
<polyline points="227.0,97.0,234.5,96.5" stroke="black" stroke-width="2" fill="none" />
<polyline points="235.0,92.5,227.0,93.5,219.0,94.0" stroke="black" stroke-width="2" fill="none" />
<polyline points="227.5,87.0,235.5,86.0,243.0,85.5" stroke="black" stroke-width="2" fill="none" />
<polyline points="243.5,91.0,235.5,91.5" stroke="black" stroke-width="2" fill="none" />
<polyline points="230.5,97.5,250.5,80.0,270.5,80.0,272.5,82.5,287.0,102.0,284.0,122.0,276.5,142.5,279.0,162.0,288.5,182.5,314.0,197.5" stroke="black" stroke-width="2" fill="none" />
<polyline points="259.5,204.0,251.0,204.5,242.5,205.0,235.0,205.5" stroke="black" stroke-width="2" fill="none" />
<polyline points="230.0,204.5,250.0,204.5,269.5,204.5,279.5,216.5,302.0,236.5,319.5,256.5,312.0,279.0,297.0,299.0,279.5,324.0,277.0,326.5,299.0,307.0,319.5,304.5,339.5,304.5,359.5,309.0" stroke="black" stroke-width="2" fill="none" />
<polyline points="242.5,227.5,234.5,228.0,226.0,229.0" stroke="black" stroke-width="2" fill="none" />
<polyline points="229.0,243.0,221.0,244.0,213.0,244.5" stroke="black" stroke-width="2" fill="none" />
<polyline points="179.0,263.5,171.0,264.0" stroke="black" stroke-width="2" fill="none" />
<polyline points="165.5,256.0,157.5,256.5" stroke="black" stroke-width="2" fill="none" />
<polyline points="154.5,258.0,161.5,250.5" stroke="black" stroke-width="2" fill="none" />
<polyline points="156.5,253.0,165.0,252.5,173.0,252.0" stroke="black" stroke-width="2" fill="none" />
<polyline points="161.5,242.0,153.5,250.0" stroke="black" stroke-width="2" fill="none" />
<polyline points="147.5,244.0,156.0,244.0,163.5,244.0" stroke="black" stroke-width="2" fill="none" />
<polyline points="159.0,242.5,179.0,257.5,199.0,255.0,219.5,230.0,239.5,215.0,260.0,212.0,280.0,217.0,300.0,232.0,320.0,255.0,340.5,257.5,360.5,238.0" stroke="black" stroke-width="2" fill="none" />
<polyline points="291.5,168.5,287.0,148.5,292.5,129.0,300.0,111.5,295.0,91.5,275.0,71.5,302.5,54.0,327.5,27.0,307.5,22.0" stroke="black" stroke-width="2" fill="none" />
<polyline points="291.0,42.5,271.0,42.0" stroke="black" stroke-width="2" fill="none" />
<polyline points="243.5,45.0,235.5,45.5" stroke="black" stroke-width="2" fill="none" />
<polyline points="213.5,39.0,233.5,41.5,253.5,41.5,275.5,61.5,295.0,59.0" stroke="black" stroke-width="2" fill="none" />
<polyline points="317.5,82.5,337.5,80.0,357.5,80.0" stroke="black" stroke-width="2" fill="none" />
<polyline points="358.5,84.5,338.0,84.0,318.0,83.5" stroke="black" stroke-width="2" fill="none" />
<polyline points="280.5,47.5,280.5,55.0,261.0,52.5,238.5,47.5,218.5,62.0,198.0,44.5,175.0,26.5,154.5,26.5,147.0,45.0,127.0,58.0,101.5,63.0,81.0,63.0,61.0,70.5" stroke="black" stroke-width="2" fill="none" />
<polyline points="69.0,67.5,89.0,70.5,109.5,68.0" stroke="black" stroke-width="2" fill="none" />
<polyline points="109.5,54.0,117.5,53.5" stroke="black" stroke-width="2" fill="none" />
<polyline points="131.5,61.0,139.5,60.5" stroke="black" stroke-width="2" fill="none" />
<polyline points="149.0,64.5,157.0,63.0,165.0,62.0,172.5,61.5,180.0,61.0,187.5,61.0,195.5,60.0,203.5,59.0" stroke="black" stroke-width="2" fill="none" />
<polyline points="196.5,61.5,188.5,69.0,181.0,76.5,173.0,83.5,164.5,90.5,156.0,97.5,148.0,104.0" stroke="black" stroke-width="2" fill="none" />
<polyline points="147.5,103.5,155.5,103.0,164.5,102.5,173.0,101.5,181.0,101.0,189.0,100.5,197.0,99.5,205.5,99.0,213.0,98.0" stroke="black" stroke-width="2" fill="none" />
<polyline points="203.5,102.0,196.0,109.5" stroke="black" stroke-width="2" fill="none" />
<polyline points="194.5,111.0,203.0,110.5,211.5,110.0" stroke="black" stroke-width="2" fill="none" />
<polyline points="204.0,90.5,196.5,91.5" stroke="black" stroke-width="2" fill="none" />
<polyline points="204.0,85.0,196.0,92.5,187.5,100.0,179.0,107.0,171.0,114.5" stroke="black" stroke-width="2" fill="none" />
<polyline points="173.5,113.5,166.0,114.5" stroke="black" stroke-width="2" fill="none" />
<polyline points="162.0,114.0,170.5,107.0,178.5,99.5,187.0,92.0,195.0,84.0,202.5,76.0" stroke="black" stroke-width="2" fill="none" />
<polyline points="203.5,68.0,195.0,75.5,187.0,83.0,178.5,90.0,170.0,97.5,162.0,104.5,153.5,112.0" stroke="black" stroke-width="2" fill="none" />
<polyline points="155.0,116.5,163.0,116.5,171.0,116.0" stroke="black" stroke-width="2" fill="none" />
<polyline points="179.5,107.0,152.0,127.0,157.5,147.0,167.5,179.5" stroke="black" stroke-width="2" fill="none" />
<polyline points="169.5,193.5,161.5,201.0,154.0,209.0" stroke="black" stroke-width="2" fill="none" />
<polyline points="155.0,205.5,163.0,205.0,171.0,204.5" stroke="black" stroke-width="2" fill="none" />
<polyline points="172.0,201.5,180.0,201.0" stroke="black" stroke-width="2" fill="none" />
<polyline points="179.5,205.0,187.5,197.5" stroke="black" stroke-width="2" fill="none" />
<polyline points="188.5,203.0,197.0,196.0" stroke="black" stroke-width="2" fill="none" />
<polyline points="181.5,195.5,173.0,202.5,164.5,210.0,156.5,217.5,148.0,225.5" stroke="black" stroke-width="2" fill="none" />
<polyline points="147.5,222.0,155.0,221.5,163.5,221.5" stroke="black" stroke-width="2" fill="none" />
<polyline points="164.5,214.5,156.5,214.5" stroke="black" stroke-width="2" fill="none" />
<polyline points="158.0,214.5,178.0,200.0,197.5,197.5,217.5,187.5" stroke="black" stroke-width="2" fill="none" />
<polyline points="212.0,194.5,204.5,195.0,196.5,195.5,188.5,196.0,181.0,196.0,173.5,196.5,166.0,197.0" stroke="black" stroke-width="2" fill="none" />
<polyline points="173.0,199.5,158.0,219.0,158.0,239.0" stroke="black" stroke-width="2" fill="none" />
<polyline points="154.5,236.5,147.0,243.5" stroke="black" stroke-width="2" fill="none" />
<polyline points="149.0,237.5,156.5,237.5,164.5,237.0" stroke="black" stroke-width="2" fill="none" />
<polyline points="154.5,226.5,146.0,234.0" stroke="black" stroke-width="2" fill="none" />
<polyline points="149.0,231.0,157.0,230.5,165.5,230.0" stroke="black" stroke-width="2" fill="none" />
<polyline points="162.5,212.5,154.0,213.0,146.0,213.5" stroke="black" stroke-width="2" fill="none" />
<polyline points="130.0,202.0,137.5,194.0,145.0,186.5,153.0,179.0" stroke="black" stroke-width="2" fill="none" />
<polyline points="152.5,172.5,145.0,180.0,138.0,187.5,130.5,195.0,123.0,203.0" stroke="black" stroke-width="2" fill="none" />
<polyline points="116.0,202.0,123.5,194.5,131.0,187.0,138.5,180.0,146.5,172.5,154.5,165.0" stroke="black" stroke-width="2" fill="none" />
<polyline points="147.5,165.0,140.0,172.0,131.5,179.5,123.5,187.0,115.5,194.0" stroke="black" stroke-width="2" fill="none" />
<polyline points="109.0,194.0,117.0,186.5,124.5,178.0,132.5,170.5,140.5,163.5,148.5,156.0" stroke="black" stroke-width="2" fill="none" />
<polyline points="149.5,149.0,141.0,156.5,133.0,163.5,124.5,170.0,116.5,177.5,108.5,185.0,100.5,192.5" stroke="black" stroke-width="2" fill="none" />
<polyline points="100.5,189.5,108.0,189.5,116.0,189.5,124.0,188.5,132.0,187.5,140.0,187.0,147.5,186.5,155.0,185.5" stroke="black" stroke-width="2" fill="none" />
<polyline points="154.5,176.0,147.0,177.0,139.5,177.5" stroke="black" stroke-width="2" fill="none" />
<polyline points="139.5,145.5,131.0,146.0,123.0,146.0,114.5,146.0" stroke="black" stroke-width="2" fill="none" />
<polyline points="115.0,141.0,107.0,148.0,99.5,155.5" stroke="black" stroke-width="2" fill="none" />
<polyline points="100.0,154.5,108.0,154.0,116.0,153.0,124.0,152.5,132.0,151.5,140.5,151.0,148.5,151.0" stroke="black" stroke-width="2" fill="none" />
<polyline points="148.0,141.0,140.5,148.5,133.0,156.0,125.0,163.5,117.0,171.0,109.0,178.0,100.5,185.0" stroke="black" stroke-width="2" fill="none" />
<polyline points="101.0,184.5,108.5,184.0,116.5,184.0,124.0,183.5,132.0,184.0,140.0,184.0,148.0,183.5,156.0,182.5" stroke="black" stroke-width="2" fill="none" />
<polyline points="147.0,195.5,138.5,196.5,130.5,197.5,122.5,198.0,114.5,199.0,106.5,199.5" stroke="black" stroke-width="2" fill="none" />
<polyline points="107.0,194.5,115.0,193.5,123.5,193.0,132.0,192.5,140.0,191.5,148.5,190.5" stroke="black" stroke-width="2" fill="none" />
<polyline points="131.5,174.5,124.0,174.5,116.0,175.0,108.5,175.0,100.5,175.0" stroke="black" stroke-width="2" fill="none" />
<polyline points="99.0,177.5,106.5,170.5,114.5,163.0,122.5,156.0,130.5,148.5,139.0,140.5" stroke="black" stroke-width="2" fill="none" />
<polyline points="130.0,141.0,122.5,148.5,115.0,156.0,107.0,163.0,99.0,169.5,91.0,176.5" stroke="black" stroke-width="2" fill="none" />
<polyline points="93.0,175.5,113.5,197.5,133.0,197.5,153.0,177.5" stroke="black" stroke-width="2" fill="none" />
<polyline points="147.0,157.5,139.0,158.0,131.0,159.0,122.5,160.0,115.0,161.0,107.5,161.5,99.5,162.0" stroke="black" stroke-width="2" fill="none" />
<polyline points="102.0,165.5,122.0,163.0" stroke="black" stroke-width="2" fill="none" />
<polyline points="106.5,168.0,98.5,169.0" stroke="black" stroke-width="2" fill="none" />
<polyline points="93.5,172.0,101.5,171.5,108.5,171.0,115.5,171.0,122.0,171.5,129.5,171.5,137.5,171.0,146.0,170.5,154.0,170.0" stroke="black" stroke-width="2" fill="none" />
<polyline points="163.0,177.0,155.0,177.5,147.0,177.5,139.5,178.0,131.5,178.5,123.5,178.5,116.0,179.0,108.5,179.5,101.0,180.5,93.0,181.5" stroke="black" stroke-width="2" fill="none" />
<polyline points="91.5,171.0,99.0,164.5,107.0,157.0,115.5,149.0,124.0,141.5" stroke="black" stroke-width="2" fill="none" />
<polyline points="115.5,134.5,123.5,134.0,131.5,133.0" stroke="black" stroke-width="2" fill="none" />
<polyline points="147.5,133.5,155.0,133.0" stroke="black" stroke-width="2" fill="none" />
<polyline points="156.0,124.0,148.0,124.0" stroke="black" stroke-width="2" fill="none" />
<polyline points="147.5,109.0,156.0,108.5,164.0,108.5,172.5,108.5,180.5,108.5,189.0,108.0" stroke="black" stroke-width="2" fill="none" />
<polyline points="187.5,107.0,195.5,99.5,204.0,92.0,212.0,84.5" stroke="black" stroke-width="2" fill="none" />
<polyline points="202.5,81.5,194.0,81.5" stroke="black" stroke-width="2" fill="none" />
<polyline points="198.0,67.5,190.0,75.0,181.5,82.5,173.0,90.0,164.0,97.0,156.0,104.0" stroke="black" stroke-width="2" fill="none" />
<polyline points="154.0,106.5,162.5,106.0,170.5,104.5,178.5,103.5,186.0,103.0,194.0,102.5,202.5,102.0" stroke="black" stroke-width="2" fill="none" />
<polyline points="188.5,61.5,180.5,69.0,173.0,76.0,164.5,83.5,156.5,91.0,148.0,98.5" stroke="black" stroke-width="2" fill="none" />
<polyline points="149.0,98.0,156.5,97.5,164.5,97.5,172.5,97.5,179.5,97.5,187.5,97.0,195.5,96.5,204.0,96.0" stroke="black" stroke-width="2" fill="none" />
<polyline points="180.5,59.0,172.5,66.5,164.5,74.0,156.5,81.0,148.5,89.0" stroke="black" stroke-width="2" fill="none" />
<polyline points="148.5,90.0,156.5,89.5" stroke="black" stroke-width="2" fill="none" />
<polyline points="153.0,88.0,173.0,90.5,193.0,83.0" stroke="black" stroke-width="2" fill="none" />
<polyline points="194.0,63.5,186.0,64.5,178.0,65.0,170.5,65.5,162.5,65.5,154.0,66.0" stroke="black" stroke-width="2" fill="none" />
<polyline points="147.5,71.5,155.5,70.5,163.5,69.5,171.5,69.0,180.0,68.0,188.5,67.5,196.5,67.5,204.5,67.0,212.5,67.0" stroke="black" stroke-width="2" fill="none" />
<polyline points="210.0,46.5,202.0,47.0" stroke="black" stroke-width="2" fill="none" />
<polyline points="196.0,51.0,187.5,52.0,179.0,52.5,170.5,53.5,162.5,54.0,154.5,54.0" stroke="black" stroke-width="2" fill="none" />
<polyline points="162.0,59.0,154.0,66.5,146.0,74.0" stroke="black" stroke-width="2" fill="none" />
<polyline points="148.0,74.5,155.5,74.0,163.5,74.0,171.0,73.5,179.0,73.5,187.0,73.0,195.0,72.5,202.5,72.0" stroke="black" stroke-width="2" fill="none" />
<polyline points="212.5,88.5,204.0,88.5,195.0,88.5,187.0,89.0,178.5,89.0,170.0,89.5,161.5,90.0,153.0,90.0,145.0,90.5,137.0,91.0" stroke="black" stroke-width="2" fill="none" />
<polyline points="139.5,84.5,147.5,84.5,155.5,83.5,163.5,82.5,171.5,82.0,179.5,81.5,187.5,81.0,195.0,80.5,203.0,80.0,211.5,80.0" stroke="black" stroke-width="2" fill="none" />
<polyline points="211.0,72.0,203.5,72.5,195.5,73.0,187.5,73.0,179.5,74.0,172.0,75.0,164.5,76.0,157.0,77.0,148.5,78.0,141.0,78.5" stroke="black" stroke-width="2" fill="none" />
<polyline points="139.5,81.0,159.5,56.0,180.0,53.5,200.5,65.5" stroke="black" stroke-width="2" fill="none" />
<polyline points="187.0,77.0,167.0,74.5,147.0,82.0" stroke="black" stroke-width="2" fill="none" />
<polyline points="148.5,82.0,169.0,84.5" stroke="black" stroke-width="2" fill="none" />
<polyline points="150.5,81.0,158.5,73.5,166.5,66.0,174.0,58.5,182.0,51.0" stroke="black" stroke-width="2" fill="none" />
<polyline points="184.0,54.0,204.0,74.5,204.5,94.5,212.0,112.5" stroke="black" stroke-width="2" fill="none" />
<polyline points="189.0,157.5,169.0,158.0" stroke="black" stroke-width="2" fill="none" />
<polyline points="166.5,152.5,186.5,152.5,206.5,155.0" stroke="black" stroke-width="2" fill="none" />
<polyline points="199.5,146.5,180.0,146.5,159.5,146.5" stroke="black" stroke-width="2" fill="none" />
<polyline points="157.0,139.5,149.0,140.0,141.0,140.5,132.5,140.5,124.0,140.5,116.0,141.0,108.5,141.5,100.5,142.0" stroke="black" stroke-width="2" fill="none" />
<polyline points="111.5,134.5,91.5,155.0,91.5,175.0,104.0,195.5" stroke="black" stroke-width="2" fill="none" />
<polyline points="106.0,215.0,114.0,214.5" stroke="black" stroke-width="2" fill="none" />
<polyline points="113.5,222.5,122.0,221.5" stroke="black" stroke-width="2" fill="none" />
<polyline points="113.0,218.5,93.0,224.0" stroke="black" stroke-width="2" fill="none" />
<polyline points="79.5,234.0,99.5,234.0,119.5,234.0" stroke="black" stroke-width="2" fill="none" />
<polyline points="120.0,285.0,140.0,282.5,160.0,284.5,179.5,284.5,199.5,284.5,222.0,302.0,241.5,315.0,261.5,315.0" stroke="black" stroke-width="2" fill="none" />
<polyline points="186.5,312.0,207.0,312.0,229.0,327.0,249.5,324.5,269.5,317.0,289.5,304.5,317.0,284.5,337.5,285.0,358.0,285.0,378.0,285.0" stroke="black" stroke-width="2" fill="none" />
<polyline points="295.0,275.5,275.0,298.5,254.5,303.5,234.5,293.5,219.5,286.0,190.0,290.5,168.0,290.5,145.5,290.0,125.5,290.0" stroke="black" stroke-width="2" fill="none" />
<polyline points="184.5,304.0,204.5,304.5" stroke="black" stroke-width="2" fill="none" />
<polyline points="217.5,299.5,207.5,275.0,197.5,255.0,217.5,235.0,240.0,215.0" stroke="black" stroke-width="2" fill="none" />
<polyline points="155.0,162.0,147.0,163.0,139.0,163.0,130.5,163.5,123.0,164.0,115.0,165.0,107.5,165.5,99.5,166.0,91.5,166.5" stroke="black" stroke-width="2" fill="none" />
<polyline points="89.5,159.5,109.5,137.0,129.0,134.5,149.0,134.5,174.0,142.0,194.0,142.0,214.0,142.5" stroke="black" stroke-width="2" fill="none" />
<polyline points="156.0,152.5,147.5,154.0,139.5,155.0,131.0,155.5,123.0,156.5,114.5,157.0,106.0,158.0,97.5,158.5,89.0,159.0" stroke="black" stroke-width="2" fill="none" />
<polyline points="78.0,149.5,86.0,149.0,94.0,149.0,101.5,149.0,109.0,148.5,116.5,148.0,125.0,147.5,133.0,147.0,140.5,146.5,148.0,146.0,156.5,145.0" stroke="black" stroke-width="2" fill="none" />
<polyline points="124.5,170.0,105.0,170.5" stroke="black" stroke-width="2" fill="none" />
<polyline points="90.5,190.0,82.5,190.5" stroke="black" stroke-width="2" fill="none" />
<polyline points="59.0,180.5,50.5,181.0" stroke="black" stroke-width="2" fill="none" />
<polyline points="51.0,189.0,42.5,189.5" stroke="black" stroke-width="2" fill="none" />
<polyline points="32.5,183.5,52.5,183.5" stroke="black" stroke-width="2" fill="none" />
<polyline points="51.0,195.0,31.0,195.0" stroke="black" stroke-width="2" fill="none" />
<polyline points="30.0,179.5,50.0,177.5,70.0,182.5" stroke="black" stroke-width="2" fill="none" />
<polyline points="59.0,156.0,39.0,156.0" stroke="black" stroke-width="2" fill="none" />
<polyline points="37.0,150.0,57.0,150.0" stroke="black" stroke-width="2" fill="none" />
<polyline points="60.5,142.5,68.0,142.0" stroke="black" stroke-width="2" fill="none" />
<polyline points="71.0,107.5,91.0,107.5,111.5,107.5,87.0,132.5,69.5,152.5,75.0,167.5,75.0,184.5,90.5,202.0,85.5,219.5,78.0,230.0,90.5,230.0,110.5,230.0,130.5,227.5,160.0,260.0,179.5,267.0,199.0,264.5,224.0,240.0,244.0,224.5,263.5,222.5,284.0,232.5,303.5,257.5,323.5,270.0,344.0,267.5,364.0,249.5" stroke="black" stroke-width="2" fill="none" />
<polyline points="207.5,111.0,202.5,96.0,183.0,106.0,163.0,116.0,145.5,126.5,145.5,129.5,153.0,109.5,140.0,89.5,145.0,69.0,167.5,34.0,147.5,31.0" stroke="black" stroke-width="2" fill="none" />
<polyline points="149.0,23.0,157.5,22.0" stroke="black" stroke-width="2" fill="none" />
<polyline points="152.0,22.5,172.0,22.5" stroke="black" stroke-width="2" fill="none" />
<polyline points="173.5,37.5,165.5,38.0" stroke="black" stroke-width="2" fill="none" />
<polyline points="142.0,14.0,162.5,17.0,185.0,34.5,210.5,55.0,223.0,75.0,220.5,95.5,220.5,115.0,227.5,135.0,227.5,154.5,217.0,174.0" stroke="black" stroke-width="2" fill="none" />
<polyline points="134.5,112.0,114.5,119.5,94.5,126.5,70.0,139.0,50.0,138.5,30.0,138.0,10.5,135.5" stroke="black" stroke-width="2" fill="none" />
<polyline points="12.0,143.0,19.5,142.5" stroke="black" stroke-width="2" fill="none" />
<polyline points="13.0,144.0,33.0,144.0,52.5,144.0" stroke="black" stroke-width="2" fill="none" />
<polyline points="33.0,175.5,26.0,195.5,43.5,190.5,64.0,190.5,79.0,190.0,99.5,210.0" stroke="black" stroke-width="2" fill="none" />
<polyline points="62.0,103.0,82.0,100.0,102.0,100.0,107.5,95.0" stroke="black" stroke-width="2" fill="none" />
<polyline points="108.0,96.0,116.5,95.5" stroke="black" stroke-width="2" fill="none" />
<polyline points="98.5,93.5,90.5,93.5" stroke="black" stroke-width="2" fill="none" />
<polyline points="88.0,93.0,88.0,85.5,108.0,88.0" stroke="black" stroke-width="2" fill="none" />
<polyline points="91.0,53.0,83.0,53.5" stroke="black" stroke-width="2" fill="none" />
<polyline points="78.0,55.0,98.0,57.5,118.0,57.5" stroke="black" stroke-width="2" fill="none" />
<polyline points="114.5,49.0,94.5,49.0,74.5,49.0" stroke="black" stroke-width="2" fill="none" />
<polyline points="210.0,37.0,230.5,37.0" stroke="black" stroke-width="2" fill="none" />
<polyline points="230.0,28.0,210.0,28.0" stroke="black" stroke-width="2" fill="none" />
<polyline points="253.0,68.0,225.0,87.5,237.5,73.0,257.5,67.5,278.0,72.0,298.0,64.5,315.5,45.0,338.0,27.5,358.0,28.0" stroke="black" stroke-width="2" fill="none" />
</svg>